# Blender 4.2.0
# www.blender.org
mtllib brain.mtl
o Icosphere
v -0.025967 0.211207 -0.417075
v 0.317189 0.444466 -0.020410
v -0.121153 0.529568 0.260848
v -0.392067 0.444467 -0.315570
v -0.121153 0.338320 -0.828703
v 0.317189 0.338320 -0.646279
v 0.121153 0.906998 0.260848
v -0.317189 0.867640 0.063646
v -0.317189 0.821895 -0.610730
v 0.121153 0.821896 -0.793154
v 0.392067 0.821894 -0.315570
v 0.000000 1.055154 -0.315570
v -0.071212 0.360131 -0.034856
v 0.186438 0.360131 -0.142081
v 0.115227 0.496435 0.237472
v 0.372877 0.411334 -0.315570
v 0.124422 0.234084 -0.633047
v -0.230451 0.274228 -0.315570
v -0.301664 0.411334 -0.034855
v -0.139217 0.168081 -0.631834
v -0.301664 0.305188 -0.631835
v 0.115227 0.305187 -0.805326
v 0.416891 0.633180 -0.142080
v 0.416891 0.633180 -0.489060
v 0.000000 0.718283 0.344699
v 0.257653 0.718283 0.237474
v -0.416891 0.633180 -0.142080
v -0.257653 0.718283 0.237474
v -0.257653 0.527035 -0.805329
v -0.416891 0.633180 -0.489060
v 0.257653 0.527035 -0.805329
v 0.000000 0.527035 -0.912553
v 0.301664 0.900772 0.049201
v -0.115227 0.940130 0.237472
v -0.372877 0.855027 -0.315570
v -0.115227 0.855028 -0.769777
v 0.301664 0.855027 -0.596286
v 0.071212 1.037879 0.049200
v 0.230451 0.992133 -0.315570
v -0.186438 0.992134 -0.142081
v -0.186438 0.992134 -0.489060
v 0.071212 0.992134 -0.596285
v -0.010599 0.149631 -0.427497
v 0.073285 0.135878 -0.579734
v -0.090393 0.134972 -0.574186
vn 0.1559 -0.9140 0.3746
vn 0.4111 -0.8941 0.1779
vn -0.1134 -0.9302 0.3490
vn -0.1568 -0.9491 0.2733
vn 0.8434 -0.0451 0.5355
vn 0.9139 -0.3466 0.2113
vn 0.0304 -0.4221 0.9060
vn -0.9034 -0.3485 0.2498
vn -0.6466 -0.3862 -0.6579
vn 0.6083 -0.3905 -0.6910
vn 0.8868 -0.1998 0.4168
vn -0.3792 -0.1614 0.9111
vn -0.9915 -0.1304 -0.0000
vn -0.3792 -0.1614 -0.9111
vn 0.9006 -0.0764 -0.4278
vn 0.4729 0.7949 0.3800
vn -0.4836 0.8504 0.2072
vn -0.6979 0.6851 -0.2086
vn 0.0427 0.7611 -0.6473
vn 0.7170 0.6807 -0.1506
vn 0.2609 0.9540 -0.1480
vn 0.4911 0.8254 -0.2786
vn 0.4358 0.7326 -0.5229
vn -0.1008 0.9650 -0.2422
vn -0.1956 0.8607 -0.4700
vn -0.4963 0.7238 -0.4794
vn -0.3202 0.9473 -0.0000
vn -0.5924 0.8056 -0.0000
vn -0.6308 0.7731 0.0669
vn -0.2404 0.9662 0.0927
vn -0.3033 0.9348 0.1850
vn 0.0692 0.8557 0.5128
vn 0.2638 0.9646 -0.0058
vn 0.5079 0.8537 0.1147
vn 0.7249 0.6882 0.0308
vn 0.9034 0.3485 -0.2498
vn 0.8462 0.2010 -0.4935
vn 0.6655 0.3356 -0.6667
vn -0.0367 0.3880 -0.9209
vn -0.3712 0.2579 -0.8920
vn -0.6151 0.3440 -0.7094
vn -0.9139 0.3466 -0.2113
vn -0.9809 0.1946 -0.0000
vn -0.9483 0.2895 0.1296
vn -0.6724 0.4317 0.6012
vn -0.3730 0.2395 0.8964
vn -0.0304 0.4221 0.9060
vn 0.6932 0.4297 0.5786
vn 0.9236 0.1438 0.3553
vn 0.9435 0.2828 0.1727
vn 0.3756 0.2111 -0.9024
vn 0.3730 -0.2395 -0.8964
vn 0.0304 -0.4221 -0.9060
vn -0.8634 0.1446 -0.4833
vn -0.9025 -0.1397 -0.4075
vn -0.9513 -0.2670 -0.1543
vn -0.9253 0.0658 0.3735
vn -0.8719 -0.2491 0.4216
vn -0.6875 -0.4243 0.5893
vn 0.3792 0.1614 0.9111
vn 0.3730 -0.2395 0.8964
vn 0.6674 -0.4285 0.6090
vn 0.9915 0.1304 -0.0000
vn 0.9809 -0.1946 -0.0000
vn 0.9576 -0.2695 -0.1017
vn 0.4234 -0.8293 -0.3648
vn -0.8167 -0.3113 0.4859
vn -0.0408 -0.7539 -0.6557
vn -0.5234 -0.6202 -0.5843
vn -0.6434 -0.7623 0.0702
vn -0.7219 -0.6854 0.0955
vn -0.7170 -0.6807 0.1506
vn -0.1998 -0.8995 0.3886
vn -0.1922 -0.8651 0.4633
vn 0.4786 -0.8709 0.1117
vn 0.4109 -0.8942 0.1777
vn 0.3967 -0.8999 0.1809
vn -0.0739 -0.8706 0.4864
vn 0.1494 -0.9213 0.3589
vn 0.2379 -0.8991 0.3675
vn 0.0087 -0.9955 0.0947
vn 0.0194 -0.8132 -0.5816
vn 0.7853 -0.5563 -0.2715
vt 0.182790 0.299103
vt 0.228105 0.368627
vt 0.137474 0.368627
vt 0.273421 0.438151
vt 0.318737 0.368627
vt 0.364053 0.438151
vt 0.907843 0.299103
vt 0.953159 0.368627
vt 0.862527 0.368627
vt 0.726580 0.299103
vt 0.771896 0.368627
vt 0.681264 0.368627
vt 0.500000 0.368627
vt 0.364053 0.299103
vt 0.364053 0.299103
vt 0.409369 0.368627
vt 0.318737 0.507675
vt 0.092158 0.438151
vt 0.182790 0.438151
vt 0.137474 0.507675
vt 0.817211 0.438151
vt 0.907843 0.438151
vt 0.862527 0.507675
vt 0.635948 0.438151
vt 0.726580 0.438151
vt 0.681264 0.507675
vt 0.454685 0.438151
vt 0.547071 0.432112
vt 0.500000 0.507675
vt 0.228105 0.507675
vt 0.046842 0.507675
vt 0.771896 0.507675
vt 0.590632 0.507675
vt 0.409369 0.507675
vt 0.182790 0.577199
vt 0.273421 0.577199
vt 0.228105 0.646724
vt 0.001525 0.577199
vt 0.092157 0.577199
vt 0.046842 0.646724
vt 0.726580 0.577199
vt 0.817211 0.577199
vt 0.771896 0.646724
vt 0.545316 0.577199
vt 0.635948 0.577199
vt 0.590632 0.646724
vt 0.364053 0.577199
vt 0.454685 0.577199
vt 0.409369 0.646724
vt 0.500000 0.646724
vt 0.454685 0.716248
vt 0.681264 0.646724
vt 0.635948 0.716248
vt 0.862527 0.646724
vt 0.817211 0.716248
vt 0.907843 0.577199
vt 0.137474 0.646724
vt 0.092158 0.716248
vt 0.318737 0.646724
vt 0.273421 0.716248
vt 0.953159 0.507675
vt 0.998475 0.438151
vt 0.590632 0.368627
vt 0.545316 0.299103
s 0
usemtl Material
f 1/1/1 14/2/1 13/3/1
f 2/4/2 14/5/2 16/6/2
f 1/7/3 13/8/3 18/9/3
f 1/10/4 18/11/4 20/12/4
f 17/13/5 1/14/5 43/15/5 44/16/5
f 2/4/6 16/6/6 23/17/6
f 3/18/7 15/19/7 25/20/7
f 4/21/8 19/22/8 27/23/8
f 5/24/9 21/25/9 29/26/9
f 6/27/10 22/28/10 31/29/10
f 2/4/11 23/17/11 26/30/11
f 3/18/12 25/20/12 28/31/12
f 4/21/13 27/23/13 30/32/13
f 5/24/14 29/26/14 32/33/14
f 6/27/15 31/29/15 24/34/15
f 7/35/16 33/36/16 38/37/16
f 8/38/17 34/39/17 40/40/17
f 9/41/18 35/42/18 41/43/18
f 10/44/19 36/45/19 42/46/19
f 11/47/20 37/48/20 39/49/20
f 39/49/21 42/50/21 12/51/21
f 39/49/22 37/48/22 42/50/22
f 37/48/23 10/44/23 42/50/23
f 42/46/24 41/52/24 12/53/24
f 42/46/25 36/45/25 41/52/25
f 36/45/26 9/41/26 41/52/26
f 41/43/27 40/54/27 12/55/27
f 41/43/28 35/42/28 40/54/28
f 35/42/29 8/56/29 40/54/29
f 40/40/30 38/57/30 12/58/30
f 40/40/31 34/39/31 38/57/31
f 34/39/32 7/35/32 38/57/32
f 38/37/33 39/59/33 12/60/33
f 38/37/34 33/36/34 39/59/34
f 33/36/35 11/47/35 39/59/35
f 24/34/36 37/48/36 11/47/36
f 24/34/37 31/29/37 37/48/37
f 31/29/38 10/44/38 37/48/38
f 32/33/39 36/45/39 10/44/39
f 32/33/40 29/26/40 36/45/40
f 29/26/41 9/41/41 36/45/41
f 30/32/42 35/42/42 9/41/42
f 30/32/43 27/23/43 35/42/43
f 27/23/44 8/56/44 35/42/44
f 28/31/45 34/39/45 8/38/45
f 28/31/46 25/20/46 34/39/46
f 25/20/47 7/35/47 34/39/47
f 26/30/48 33/36/48 7/35/48
f 26/30/49 23/17/49 33/36/49
f 23/17/50 11/47/50 33/36/50
f 31/29/51 32/33/51 10/44/51
f 31/29/52 22/28/52 32/33/52
f 22/28/53 5/24/53 32/33/53
f 29/26/54 30/32/54 9/41/54
f 29/26/55 21/25/55 30/32/55
f 21/25/56 4/21/56 30/32/56
f 27/23/57 28/61/57 8/56/57
f 27/23/58 19/22/58 28/61/58
f 19/22/59 3/62/59 28/61/59
f 25/20/60 26/30/60 7/35/60
f 25/20/61 15/19/61 26/30/61
f 15/19/62 2/4/62 26/30/62
f 23/17/63 24/34/63 11/47/63
f 23/17/64 16/6/64 24/34/64
f 16/6/65 6/27/65 24/34/65
f 17/13/66 22/28/66 6/27/66
f 1/10/67 20/12/67 45/12/67 43/10/67
f 20/63/68 5/24/68 22/28/68
f 20/12/69 21/25/69 5/24/69
f 20/12/70 18/11/70 21/25/70
f 18/11/71 4/21/71 21/25/71
f 18/9/72 19/22/72 4/21/72
f 18/9/73 13/8/73 19/22/73
f 13/8/74 3/62/74 19/22/74
f 16/6/75 17/13/75 6/27/75
f 16/6/76 14/5/76 17/13/76
f 14/5/77 1/14/77 17/13/77
f 13/3/78 15/19/78 3/18/78
f 13/3/79 14/2/79 15/19/79
f 14/2/80 2/4/80 15/19/80
f 43/64/81 45/63/81 44/13/81
f 45/63/82 20/63/82 22/28/82 44/13/82
f 17/13/83 44/16/83 22/28/83
