# Blender 4.2.0
# www.blender.org
mtllib jaw.mtl
o Cube
v -0.457942 0.011733 -0.067771
v -0.475480 0.051820 -0.043726
v -0.458560 -0.051159 -0.127493
v -0.488510 0.122027 -0.146153
v 0.460387 0.011395 -0.067807
v 0.486227 0.051750 -0.044158
v 0.446667 -0.053417 -0.126350
v 0.478377 0.121714 -0.146564
v -0.398416 -0.052551 -0.125870
v -0.429706 0.051343 -0.042665
v -0.420782 0.121219 -0.146181
v -0.418436 0.011713 -0.067863
v 0.436646 0.122504 -0.146929
v 0.399747 0.011456 -0.067857
v 0.413675 -0.051807 -0.126786
v 0.450194 0.052908 -0.042125
v -0.432090 -0.016605 0.099433
v 0.430064 -0.017189 0.099508
v -0.448405 0.105394 0.197710
v 0.437293 0.105959 0.197475
v -0.384272 -0.318141 -0.059647
v 0.380765 -0.319578 -0.060906
v -0.332608 -0.338056 0.075637
v 0.319372 -0.338049 0.073478
v -0.262285 -0.366839 0.305634
v 0.235855 -0.368720 0.305653
v -0.000261 -0.360898 0.472139
v -0.127653 -0.363792 0.436291
v 0.144448 -0.362139 0.434283
v -0.077536 -0.359794 0.460500
v -0.193683 -0.363625 0.398667
v 0.067093 -0.360701 0.460686
v 0.226755 -0.363091 0.398499
v -0.383832 -0.146418 0.194391
v 0.350450 -0.144806 0.195210
v -0.226529 -0.208376 0.378278
v 0.245978 -0.206223 0.379441
v 0.000462 -0.201536 0.546073
v -0.135088 -0.202441 0.507816
v 0.140521 -0.204397 0.508639
v -0.074485 -0.201445 0.534607
v -0.200290 -0.206303 0.470140
v 0.088199 -0.200541 0.536820
v 0.190128 -0.204708 0.471602
v -0.276762 -0.357557 0.190004
v 0.311195 -0.356598 0.189707
v -0.216071 -0.385064 0.285777
v 0.210981 -0.385045 0.286096
v 0.001897 -0.378499 0.452781
v -0.114774 -0.380514 0.414281
v 0.102667 -0.381195 0.417260
v -0.042493 -0.380040 0.442115
v -0.158485 -0.381821 0.380057
v 0.048836 -0.379977 0.444119
v 0.162359 -0.381861 0.379997
v -0.245238 -0.375423 0.169799
v 0.235986 -0.375038 0.170531
v -0.405428 -0.014969 0.105972
v 0.396444 -0.014425 0.103058
v -0.389572 0.094542 0.194423
v 0.410391 0.096936 0.195382
v -0.347989 -0.137581 0.192180
v 0.343564 -0.137708 0.191222
v 0.072592 -0.304134 0.468608
v 0.013843 -0.303831 0.482082
v -0.073687 -0.303750 0.469703
v -0.133892 -0.305366 0.443460
v -0.200946 -0.305952 0.409081
v 0.258240 -0.309907 0.313054
v 0.199581 -0.307115 0.407727
v 0.160486 -0.304765 0.443853
v -0.264678 -0.308976 0.313522
v -0.221300 -0.292651 0.307980
v -0.179387 -0.289994 0.401051
v -0.124931 -0.287409 0.437001
v -0.058489 -0.286674 0.464314
v 0.001179 -0.285949 0.475379
v 0.068517 -0.286190 0.466422
v 0.121594 -0.288728 0.438902
v 0.176244 -0.289216 0.401752
v 0.228479 -0.291565 0.308721
v -0.287530 -0.421176 -0.063967
v -0.307514 -0.442040 0.045262
v 0.283829 -0.422620 -0.065424
v 0.294826 -0.442044 0.042777
v -0.255920 -0.493874 0.177981
v -0.242546 -0.502522 0.311009
v 0.287272 -0.492916 0.177644
v 0.217668 -0.504403 0.311020
v 0.209261 -0.498263 0.417907
v -0.071862 -0.494624 0.489282
v -0.000471 -0.495665 0.502671
v -0.179167 -0.498796 0.418097
v -0.118164 -0.498756 0.461398
v 0.061755 -0.495531 0.489491
v 0.133220 -0.497114 0.459096
v -0.226797 -0.511855 0.154628
v -0.199850 -0.520860 0.288054
v 0.217789 -0.511465 0.155474
v 0.194687 -0.520840 0.288422
v 0.149768 -0.517139 0.396509
v -0.039488 -0.514976 0.468011
v 0.001522 -0.513375 0.480295
v -0.146648 -0.517098 0.396579
v -0.106265 -0.515602 0.435975
v 0.044887 -0.514901 0.470318
v 0.094620 -0.516267 0.439399
vn -0.9732 -0.2185 0.0721
vn 0.0069 -0.1158 -0.9932
vn 0.9576 -0.2536 -0.1365
vn -0.0127 -0.5288 0.8486
vn 0.0042 0.8269 0.5624
vn 0.0105 -0.1100 -0.9939
vn -0.9467 0.3219 0.0102
vn 0.9724 0.1492 0.1794
vn 0.0109 -0.5242 0.8516
vn 0.0327 0.8305 0.5560
vn 0.1318 -0.5366 0.8335
vn -0.3380 -0.5039 0.7949
vn -0.4067 -0.4817 0.7763
vn 0.8260 -0.2364 0.5117
vn 0.5837 -0.3729 0.7212
vn -0.8961 -0.0983 0.4328
vn 0.2874 -0.5189 0.8051
vn -0.1232 -0.5351 0.8358
vn 0.8465 -0.2630 0.4629
vn -0.9765 0.2154 0.0108
vn 0.8804 -0.1746 0.4410
vn -0.7594 -0.3959 0.5163
vn 0.0206 -0.2409 -0.9703
vn 0.0009 0.9860 0.1670
vn -0.9664 -0.2122 0.1450
vn 0.0008 0.9857 0.1685
vn 0.0012 -0.2390 -0.9710
vn 0.9671 -0.2304 0.1080
vn -0.9045 0.0671 -0.4212
vn 0.9800 -0.1988 0.0064
vn -0.5715 -0.0732 -0.8174
vn -0.9838 -0.1492 0.0994
vn -0.8327 -0.0548 0.5511
vn -0.9751 0.1319 -0.1785
vn -0.9146 -0.2331 0.3304
vn -0.2045 -0.1880 -0.9606
vn 0.8513 -0.5159 0.0963
vn -0.4797 0.1459 0.8652
vn 0.0580 0.0013 0.9983
vn -0.0839 0.6324 -0.7701
vn -0.1794 0.0438 0.9828
vn 0.0968 0.6250 -0.7746
vn 0.0968 0.9838 0.1508
vn -0.0991 0.9824 0.1582
vn 0.9365 0.2045 -0.2847
vn 0.8565 0.2298 -0.4621
vn 0.5512 0.2785 -0.7865
vn 0.3541 0.2657 -0.8967
vn 0.1930 0.2462 -0.9498
vn -0.1441 0.2457 -0.9586
vn -0.4257 0.2904 -0.8570
vn -0.5214 0.2813 -0.8056
vn -0.8481 0.2539 -0.4651
vn -0.9243 0.3025 -0.2329
vn 0.9690 0.1332 -0.2081
vn -0.1869 0.8715 0.4535
vn 0.4605 0.7303 0.5046
vn 0.8753 0.0573 -0.4801
vn -0.8596 -0.5103 0.0263
vn 0.3548 0.1612 0.9210
vn -0.9045 -0.3022 0.3009
vn -0.9575 -0.2475 0.1483
vn -0.9512 -0.2998 0.0735
vn -0.8374 -0.4316 0.3353
vn 0.8923 -0.3120 0.3263
vn 0.8940 -0.3328 0.3000
vn 0.8748 -0.3305 0.3542
vn 0.9823 -0.1831 0.0399
vn -0.9442 0.2722 -0.1857
vn 0.9214 0.3824 -0.0700
vn 0.8307 0.3957 -0.3916
vn -0.8604 0.4157 -0.2948
vn -0.8155 0.4056 -0.4129
vn 0.8262 0.3947 -0.4021
vn 0.9279 0.2265 -0.2961
vn 0.9931 0.1014 -0.0587
vn 0.9703 0.1059 0.2175
vn -0.9381 0.2001 -0.2828
vn -0.9983 0.0570 -0.0107
vn -0.9589 0.0491 -0.2794
vn -0.1437 -0.1429 0.9792
vn 0.2876 -0.1982 0.9370
vn -0.8059 -0.1577 0.5707
vn 0.5056 -0.0926 0.8578
vn 0.9403 -0.0101 0.3402
vn -0.4672 -0.1853 0.8645
vn -0.4061 -0.1377 0.9034
vn 0.1904 -0.1844 0.9642
vn 0.9135 0.1672 -0.3708
vn -0.7414 0.5038 -0.4432
vn -0.4523 0.6189 -0.6422
vn -0.3264 0.6443 -0.6916
vn -0.0925 0.6419 -0.7612
vn 0.1237 0.6414 -0.7571
vn 0.2949 0.6363 -0.7128
vn 0.3817 0.6307 -0.6756
vn 0.8553 0.4032 -0.3255
vn 0.3353 -0.9411 0.0430
vn 0.1290 -0.7623 0.6342
vn 0.2315 -0.8358 0.4979
vn 0.3332 -0.9345 0.1254
vn 0.2087 -0.9141 0.3476
vn -0.2158 -0.8531 0.4750
vn -0.1310 -0.7960 0.5910
vn -0.4470 -0.8945 0.0084
vn -0.3260 -0.9221 0.2083
vn -0.2950 -0.8776 0.3780
vn -0.5761 -0.8121 -0.0932
vn 0.3375 -0.8869 -0.3156
vn 0.4758 -0.8560 -0.2020
vn -0.4237 -0.8723 -0.2441
vn 0.1822 0.2078 0.9611
vn 0.8613 -0.1453 0.4869
vn 0.2614 -0.1850 -0.9473
vn 0.4361 0.1000 0.8943
vn 0.9881 -0.1216 0.0938
vn -0.8611 0.4355 -0.2624
vn 0.6587 -0.0565 -0.7503
vn -0.1594 0.2090 0.9648
vn 0.8665 0.4365 -0.2422
vn -0.4854 -0.1331 -0.8641
vn -0.5350 0.0909 0.8399
vn 0.3923 -0.1434 -0.9086
vt -0.202810 1.007928
vt -0.208529 1.081355
vt -0.292555 1.108377
vt -0.244662 0.994192
vt 0.743888 0.480596
vt 0.743888 0.347528
vt 0.747134 0.348105
vt 0.746467 0.481810
vt 0.672697 1.000698
vt 0.720161 1.116809
vt 0.636572 1.088559
vt 0.631754 1.014857
vt 0.749552 0.689580
vt 0.749090 0.611064
vt 0.752613 0.610827
vt 0.752613 0.689498
vt 0.749090 0.125737
vt 0.754360 0.125359
vt 0.754360 0.218198
vt 0.750854 0.219178
vt 0.743888 0.132027
vt 0.743888 -0.000000
vt 0.749090 0.000662
vt 0.748614 0.133327
vt 0.126466 0.571022
vt 0.047730 0.584264
vt -0.000000 0.501683
vt 0.130987 0.524905
vt 0.610668 0.524846
vt 0.741189 0.501683
vt 0.693058 0.583264
vt 0.615706 0.570387
vt 0.749090 0.389958
vt 0.750906 0.311161
vt 0.753783 0.310103
vt 0.753783 0.390150
vt 0.749090 0.390735
vt 0.752336 0.390150
vt 0.752336 0.484441
vt 0.749395 0.483473
vt 0.207427 0.913263
vt 0.233753 0.910312
vt 0.227761 1.002675
vt 0.204411 1.001152
vt 0.136070 0.906369
vt 0.180070 0.910841
vt 0.179693 1.000117
vt 0.134451 1.001210
vt 0.090650 0.909726
vt 0.086296 0.993675
vt 0.323796 0.909640
vt 0.413685 0.912594
vt 0.410564 0.976025
vt 0.322798 0.999340
vt 0.277144 0.908471
vt 0.274444 0.999195
vt -0.000530 0.909752
vt -0.000350 0.968081
vt 0.582214 0.386503
vt 0.663575 0.372719
vt 0.596312 0.515263
vt 0.588742 0.427623
vt 0.377823 0.386271
vt 0.371200 0.426415
vt 0.361666 0.511539
vt 0.297678 0.368543
vt 0.734688 0.522612
vt 0.223424 0.516951
vt 0.748400 0.347528
vt 0.749090 0.689580
vt 0.752140 0.689722
vt 0.749090 0.778730
vt 0.061773 0.534198
vt 0.019922 0.520462
vt 0.119655 0.344673
vt 0.146292 0.536934
vt 0.749090 0.219178
vt 0.753771 0.219223
vt 0.750930 0.308449
vt 0.746455 0.696364
vt 0.937280 0.526967
vt 0.896338 0.541127
vt 0.811573 0.542278
vt 0.842238 0.349473
vt 0.535110 0.654578
vt 0.539724 0.616836
vt 0.606657 0.650521
vt 0.561218 0.698060
vt 0.548823 0.340635
vt 0.546205 0.270823
vt 0.629291 0.255649
vt 0.617289 0.348907
vt 0.531866 0.666787
vt 0.543722 0.706252
vt 0.513532 0.208877
vt 0.510821 0.270948
vt 0.426785 0.259966
vt 0.446718 0.176140
vt 0.517386 0.171211
vt 0.490383 0.128123
vt 0.544114 0.552836
vt 0.629291 0.567429
vt 0.509084 0.340268
vt 0.443949 0.349116
vt 0.527894 0.675079
vt 0.529261 0.673759
vt 0.531649 0.708999
vt 0.526927 0.709223
vt 0.551293 0.416474
vt 0.610643 0.419932
vt 0.524038 0.153500
vt 0.521040 0.159016
vt 0.507328 0.118843
vt 0.518902 0.116325
vt 0.748272 0.696364
vt 0.748272 0.883481
vt 0.745288 0.877367
vt 0.743888 0.705048
vt 0.751505 0.610827
vt 0.749090 0.609391
vt 0.749683 0.491099
vt 0.751505 0.484441
vt -0.000000 0.723653
vt 0.006866 0.722370
vt 0.184594 0.729811
vt 0.189797 0.733188
vt 0.749090 0.125359
vt 0.749090 -0.000000
vt 0.753741 0.007424
vt 0.751622 0.124790
vt 0.753771 0.310103
vt 0.751388 0.868839
vt 0.749090 0.873508
vt 0.749090 0.778730
vt 0.372719 0.384859
vt 0.512830 0.498380
vt 0.441865 0.485719
vt 0.370899 0.473058
vt 0.448339 0.555978
vt 0.377929 0.544163
vt 0.452157 0.582942
vt 0.380661 0.569907
vt 0.454217 0.603415
vt 0.382569 0.590771
vt 0.455493 0.611601
vt 0.384389 0.598659
vt 0.287056 0.605024
vt 0.359098 0.592413
vt 0.357446 0.598693
vt 0.286275 0.611497
vt 0.290427 0.584551
vt 0.361440 0.572382
vt 0.292710 0.556704
vt 0.363877 0.544479
vt 0.299069 0.486654
vt 0.370899 0.473793
vt 0.227238 0.499514
vt 0.368908 0.386002
vt 0.513932 0.552675
vt 0.517580 0.616774
vt 0.450487 0.648266
vt 0.428869 0.565787
vt 0.097083 0.985269
vt -0.044183 0.996967
vt -0.041159 0.990681
vt 0.331728 0.988993
vt 0.470105 0.996342
vt 0.474150 1.000531
vt 0.521201 0.654772
vt 0.493747 0.696215
vt 0.510074 0.415725
vt 0.449433 0.418713
vt 0.530535 0.160091
vt 0.527677 0.153254
vt 0.531049 0.115697
vt 0.543528 0.119018
vt 0.215816 0.358642
vt -0.089998 1.154920
vt -0.118291 1.010664
vt 0.516684 1.160521
vt 0.546990 1.016008
vt 0.746495 0.362428
vt 0.141820 0.662145
vt 0.599754 0.663799
vt 0.741189 0.723517
vt 0.557363 0.730019
vt 0.512830 0.873836
vt 0.372719 0.760315
vt 0.227238 0.874970
vt 0.368908 0.761458
vt 0.338337 0.584412
vt 0.404951 0.584324
vt 0.469894 0.498676
vt 0.494719 0.508637
vt 0.495533 0.626148
vt 0.457211 0.620287
vt 0.517841 0.497221
vt 0.572795 0.463315
vt 0.594692 0.605013
vt 0.532441 0.619573
vt 0.093434 0.336076
vt 0.331920 0.422347
vt 0.308470 0.575785
vt 0.067392 0.493928
vt 0.661844 0.428095
vt 0.682391 0.575646
vt 0.897119 0.336988
vt 0.922788 0.498676
vt 0.425284 0.460575
vt 0.393960 0.601536
vt 0.733032 0.721358
vt 0.399491 0.817235
vt 0.398435 0.910525
vt 0.319703 0.908001
vt 0.322412 0.815703
vt 0.275012 0.908512
vt 0.278867 0.816395
vt 0.231863 0.908626
vt 0.237076 0.815101
vt 0.198336 0.906489
vt 0.198043 0.814094
vt 0.161290 0.909900
vt 0.156971 0.816841
vt 0.117390 0.908298
vt 0.115642 0.815355
vt 0.076066 0.909656
vt 0.071980 0.818318
vt -0.002669 0.912714
vt -0.004576 0.820550
vt 0.272712 0.651016
vt 0.207824 0.584787
vt 0.228138 0.584381
vt 0.294505 0.648207
vt 0.110081 0.507385
vt 0.103495 0.499076
vt 0.124259 0.499278
vt 0.130118 0.504640
vt 0.126260 0.522144
vt 0.146564 0.518917
vt 0.147745 0.541889
vt 0.169067 0.538711
vt 0.109777 0.489814
vt 0.126367 0.478840
vt 0.148312 0.477982
vt 0.131381 0.493334
vt 0.207524 0.413217
vt 0.274737 0.350297
vt 0.296255 0.351595
vt 0.229157 0.415105
vt 0.149010 0.458654
vt 0.169742 0.460891
vt 0.335804 0.281242
vt 0.335915 0.719796
vt 0.409706 0.798334
vt 0.409706 0.201666
vt 0.525805 0.151449
vt 0.525043 0.114388
vt 0.539835 0.207652
vt 0.605811 0.172799
vt 0.526566 0.673130
vt 0.521246 0.708479
vt 0.534902 0.170756
vt 0.560315 0.127330
vt 0.524196 0.665743
vt 0.509049 0.704451
s 0
usemtl Material.001
f 1/1/1 2/2/1 4/3/1 3/4/1
f 15/5/2 13/6/2 8/7/2 7/8/2
f 7/9/3 8/10/3 6/11/3 5/12/3
f 12/13/4 10/14/4 2/15/4 1/16/4
f 11/17/5 4/18/5 2/19/5 10/20/5
f 3/21/6 4/22/6 11/23/6 9/24/6
f 14/25/7 16/26/7 13/27/7 15/28/7
f 9/29/8 11/30/8 10/31/8 12/32/8
f 5/33/9 6/34/9 16/35/9 14/36/9
f 8/37/10 13/38/10 16/39/10 6/40/10
f 65/41/11 64/42/11 43/43/11 38/44/11
f 67/45/12 66/46/12 41/47/12 39/48/12
f 68/49/13 67/45/13 39/48/13 42/50/13
f 70/51/14 69/52/14 37/53/14 44/54/14
f 71/55/15 70/51/15 44/54/15 40/56/15
f 72/57/16 68/49/16 42/50/16 36/58/16
f 64/42/17 71/55/17 40/56/17 43/43/17
f 66/46/18 65/41/18 38/44/18 41/47/18
f 26/59/19 46/60/19 37/61/19 69/62/19
f 25/63/20 72/64/20 36/65/20 45/66/20
f 35/67/21 37/61/21 46/60/21
f 36/65/22 34/68/22 45/66/22
f 3/21/23 9/24/23 21/69/23
f 12/70/24 1/71/24 17/72/24
f 1/73/25 3/74/25 21/75/25 17/76/25
f 5/77/26 14/78/26 18/79/26
f 15/5/27 7/8/27 22/80/27
f 7/81/28 5/82/28 18/83/28 22/84/28
f 55/85/29 48/86/29 100/87/29 101/88/29
f 24/89/30 46/90/30 88/91/30 85/92/30
f 51/93/31 55/85/31 101/88/31 107/94/31
f 25/95/32 45/96/32 86/97/32 87/98/32
f 31/99/33 25/95/33 87/98/33 93/100/33
f 48/86/34 57/101/34 99/102/34 100/87/34
f 45/96/35 23/103/35 83/104/35 86/97/35
f 49/105/36 54/106/36 106/107/36 103/108/36
f 22/109/37 24/89/37 85/92/37 84/110/37
f 30/111/38 28/112/38 94/113/38 91/114/38
f 19/115/39 34/116/39 62/117/39 60/118/39
f 18/119/40 59/120/40 61/121/40 20/122/40
f 20/123/41 61/124/41 63/125/41 35/126/41
f 17/127/42 19/128/42 60/129/42 58/130/42
f 18/79/43 14/78/43 59/131/43
f 17/132/44 58/133/44 12/134/44
f 56/135/45 36/136/45 73/137/45 47/138/45
f 74/139/46 53/140/46 47/138/46 73/137/46
f 75/141/47 50/142/47 53/140/47 74/139/47
f 76/143/48 52/144/48 50/142/48 75/141/48
f 77/145/49 49/146/49 52/144/49 76/143/49
f 78/147/50 54/148/50 49/149/50 77/150/50
f 79/151/51 51/152/51 54/148/51 78/147/51
f 80/153/52 55/154/52 51/152/52 79/151/52
f 81/155/53 48/156/53 55/154/53 80/153/53
f 48/156/54 81/155/54 37/157/54 57/158/54
f 56/159/55 47/160/55 98/161/55 97/162/55
f 36/163/56 62/164/56 34/165/56
f 37/166/57 35/167/57 63/168/57
f 47/160/58 53/169/58 104/170/58 98/161/58
f 23/103/59 21/171/59 82/172/59 83/104/59
f 29/173/60 32/174/60 95/175/60 96/176/60
f 23/177/61 17/76/61 21/75/61
f 19/178/62 17/179/62 34/165/62
f 17/76/63 23/177/63 34/68/63
f 45/66/64 34/68/64 23/177/64
f 20/180/65 35/167/65 18/181/65
f 18/83/66 35/67/66 24/182/66
f 22/84/67 18/83/67 24/182/67
f 46/60/68 24/182/68 35/67/68
f 61/124/69 59/183/69 63/125/69
f 58/184/70 19/185/70 62/186/70
f 36/187/71 56/188/71 62/186/71
f 37/189/72 63/125/72 57/190/72
f 57/190/73 63/125/73 22/191/73
f 56/188/74 21/192/74 62/186/74
f 62/186/75 21/192/75 58/184/75
f 58/184/76 21/192/76 12/32/76
f 12/32/77 21/192/77 9/29/77
f 63/125/78 59/183/78 22/191/78
f 59/183/79 14/25/79 22/191/79
f 14/25/80 15/28/80 22/191/80
f 30/193/81 27/194/81 65/195/81 66/196/81
f 32/197/82 29/198/82 71/199/82 64/200/82
f 25/201/83 31/202/83 68/203/83 72/204/83
f 29/198/84 33/205/84 70/206/84 71/199/84
f 33/205/85 26/207/85 69/208/85 70/206/85
f 31/202/86 28/209/86 67/210/86 68/203/86
f 28/209/87 30/193/87 66/196/87 67/210/87
f 27/194/88 32/197/88 64/200/88 65/195/88
f 62/186/89 58/184/89 60/211/89
f 37/212/90 81/213/90 80/214/90 44/215/90
f 44/215/91 80/214/91 79/216/91 40/217/91
f 40/217/92 79/216/92 78/218/92 43/219/92
f 43/219/93 78/218/93 77/220/93 38/221/93
f 38/221/94 77/220/94 76/222/94 41/223/94
f 41/223/95 76/222/95 75/224/95 39/225/95
f 39/225/96 75/224/96 74/226/96 42/227/96
f 42/227/97 74/226/97 73/228/97 36/229/97
f 88/230/98 89/231/98 100/232/98 99/233/98
f 95/234/99 92/235/99 103/236/99 106/237/99
f 96/238/100 95/234/100 106/237/100 107/239/100
f 89/231/101 90/240/101 101/241/101 100/232/101
f 90/240/102 96/238/102 107/239/102 101/241/102
f 91/242/103 94/243/103 105/244/103 102/245/103
f 92/235/104 91/242/104 102/245/104 103/236/104
f 87/246/105 86/247/105 97/248/105 98/249/105
f 93/250/106 87/246/106 98/249/106 104/251/106
f 94/243/107 93/250/107 104/251/107 105/244/107
f 86/247/108 83/252/108 97/248/108
f 88/230/109 99/233/109 85/253/109
f 85/253/110 99/233/110 84/254/110
f 83/252/111 82/255/111 97/248/111
f 32/174/112 27/256/112 92/257/112 95/175/112
f 46/90/113 26/258/113 89/259/113 88/91/113
f 52/260/114 49/105/114 103/108/114 102/261/114
f 33/262/115 29/173/115 96/176/115 90/263/115
f 26/258/116 33/262/116 90/263/116 89/259/116
f 57/101/117 22/109/117 84/110/117 99/102/117
f 53/169/118 50/264/118 105/265/118 104/170/118
f 27/256/119 30/111/119 91/114/119 92/257/119
f 21/171/120 56/159/120 97/162/120 82/172/120
f 54/106/121 51/93/121 107/94/121 106/107/121
f 28/112/122 31/99/122 93/100/122 94/113/122
f 50/264/123 52/260/123 102/261/123 105/265/123
