# Blender 4.2.0
# www.blender.org
mtllib eye.mtl
o Sphere
v 0.101535 0.467443 0.449164
v 0.101535 0.350201 0.449164
v 0.050768 0.510357 0.478475
v 0.087932 0.467443 0.499932
v 0.101535 0.408822 0.507786
v 0.087932 0.350201 0.499932
v 0.050768 0.307287 0.478475
v 0.029311 0.510357 0.499932
v 0.050768 0.467443 0.537096
v 0.058621 0.408822 0.550699
v 0.050768 0.350201 0.537096
v 0.029311 0.307287 0.499932
v -0.000000 0.510357 0.507786
v -0.000000 0.467443 0.550699
v -0.000000 0.408822 0.566407
v -0.000000 0.350201 0.550699
v -0.000000 0.307287 0.507786
v -0.029311 0.510357 0.499932
v -0.050768 0.467443 0.537096
v -0.058621 0.408822 0.550699
v -0.050768 0.350201 0.537096
v -0.029311 0.307287 0.499932
v -0.050768 0.510357 0.478475
v -0.087932 0.467443 0.499932
v -0.101535 0.408822 0.507786
v -0.087932 0.350201 0.499932
v -0.050768 0.307287 0.478475
v -0.058621 0.510357 0.449164
v -0.101535 0.467443 0.449164
v -0.117243 0.408822 0.449164
v -0.101535 0.350201 0.449164
v -0.058621 0.307287 0.449164
v 0.000000 0.526065 0.449164
v -0.050768 0.510357 0.419854
v -0.087932 0.467443 0.398397
v -0.101535 0.408822 0.390543
v -0.087932 0.350201 0.398397
v -0.050768 0.307287 0.419854
v 0.000000 0.291579 0.449164
v -0.029311 0.510357 0.398397
v -0.050768 0.467443 0.361232
v -0.058621 0.408822 0.347629
v -0.050768 0.350201 0.361232
v -0.029311 0.307287 0.398397
v 0.000000 0.510357 0.390543
v 0.000000 0.467443 0.347629
v 0.000000 0.408822 0.331922
v 0.000000 0.350201 0.347629
v 0.000000 0.307287 0.390543
v 0.029311 0.510357 0.398397
v 0.050768 0.467443 0.361232
v 0.058621 0.408822 0.347629
v 0.050768 0.350201 0.361232
v 0.029311 0.307287 0.398397
v 0.050768 0.510357 0.419854
v 0.087932 0.467443 0.398397
v 0.101535 0.408822 0.390543
v 0.087932 0.350201 0.398397
v 0.050768 0.307287 0.419854
v 0.058621 0.510357 0.449164
v 0.117243 0.408822 0.449164
v 0.058621 0.307287 0.449164
vn 0.2582 -0.9636 0.0692
vn 0.9351 -0.2506 0.2506
vn 0.6947 0.6947 0.1862
vn 0.6947 -0.6947 0.1862
vn 0.9351 0.2506 0.2506
vn 0.2582 0.9636 0.0692
vn 0.6846 -0.2506 0.6846
vn 0.5086 0.6947 0.5086
vn 0.5086 -0.6947 0.5086
vn 0.6846 0.2506 0.6846
vn 0.1890 0.9636 0.1890
vn 0.1890 -0.9636 0.1890
vn 0.1862 0.6947 0.6947
vn 0.1862 -0.6947 0.6947
vn 0.2506 0.2506 0.9351
vn 0.0692 0.9636 0.2582
vn 0.0692 -0.9636 0.2582
vn 0.2506 -0.2506 0.9351
vn -0.1862 -0.6947 0.6947
vn -0.2506 0.2506 0.9351
vn -0.0692 0.9636 0.2582
vn -0.0692 -0.9636 0.2582
vn -0.2506 -0.2506 0.9351
vn -0.1862 0.6947 0.6947
vn -0.5086 -0.6947 0.5086
vn -0.6846 0.2506 0.6846
vn -0.1890 0.9636 0.1890
vn -0.1890 -0.9636 0.1890
vn -0.6846 -0.2506 0.6846
vn -0.5086 0.6947 0.5086
vn -0.6947 -0.6947 0.1862
vn -0.9351 0.2506 0.2506
vn -0.2582 0.9636 0.0692
vn -0.2582 -0.9636 0.0692
vn -0.9351 -0.2506 0.2506
vn -0.6947 0.6947 0.1862
vn -0.6947 -0.6947 -0.1862
vn -0.9351 0.2506 -0.2506
vn -0.2582 0.9636 -0.0692
vn -0.2582 -0.9636 -0.0692
vn -0.9351 -0.2506 -0.2506
vn -0.6947 0.6947 -0.1862
vn -0.6846 0.2506 -0.6846
vn -0.1890 0.9636 -0.1890
vn -0.1890 -0.9636 -0.1890
vn -0.6846 -0.2506 -0.6846
vn -0.5086 0.6947 -0.5086
vn -0.5086 -0.6947 -0.5086
vn -0.0692 0.9636 -0.2582
vn -0.0692 -0.9636 -0.2582
vn -0.2506 -0.2506 -0.9351
vn -0.1862 0.6947 -0.6947
vn -0.1862 -0.6947 -0.6947
vn -0.2506 0.2506 -0.9351
vn 0.0692 -0.9636 -0.2582
vn 0.2506 -0.2506 -0.9351
vn 0.1862 0.6947 -0.6947
vn 0.1862 -0.6947 -0.6947
vn 0.2506 0.2506 -0.9351
vn 0.0692 0.9636 -0.2582
vn 0.1890 -0.9636 -0.1890
vn 0.6846 -0.2506 -0.6846
vn 0.5086 0.6947 -0.5086
vn 0.5086 -0.6947 -0.5086
vn 0.6846 0.2506 -0.6846
vn 0.1890 0.9636 -0.1890
vn 0.2582 -0.9636 -0.0692
vn 0.9351 -0.2506 -0.2506
vn 0.6947 0.6947 -0.1862
vn 0.6947 -0.6947 -0.1862
vn 0.9351 0.2506 -0.2506
vn 0.2582 0.9636 -0.0692
vt 0.823721 0.000000
vt 0.884744 0.166667
vt 0.762697 0.166667
vt 1.103979 0.233538
vt 1.103979 0.500000
vt 0.908853 0.500000
vt 0.908853 0.233538
vt 0.884744 0.666667
vt 0.884744 0.833333
vt 0.762697 0.833333
vt 0.762697 0.666667
vt 0.884744 0.333333
vt 0.762697 0.333333
vt 1.103979 0.766462
vt 0.908853 0.766462
vt 0.823721 1.000000
vt 0.713728 0.500000
vt 0.713728 0.233538
vt 0.908853 1.032923
vt 0.713728 1.032923
vt 0.713728 0.766462
vt 0.908853 -0.032923
vt 0.713728 -0.032923
vt 0.811291 1.108085
vt 0.811291 -0.108085
vt 0.518602 1.032923
vt 0.518602 0.766462
vt 0.518602 0.233538
vt 0.518602 -0.032923
vt 0.518602 0.500000
vt 0.616165 1.108085
vt 0.616165 -0.108085
vt 0.323477 0.233538
vt 0.323477 -0.032923
vt 0.323477 0.766462
vt 0.323477 0.500000
vt 0.421040 1.108085
vt 0.323477 1.032923
vt 0.421040 -0.108085
vt 0.128351 0.233538
vt 0.128351 -0.032923
vt 0.128351 0.766462
vt 0.128351 0.500000
vt 0.225914 1.108085
vt 0.128351 1.032923
vt 0.225914 -0.108085
vt 0.274508 0.166667
vt 0.274508 0.333333
vt 0.152461 0.333333
vt 0.152461 0.166667
vt -0.066774 0.766462
vt -0.066774 0.500000
vt 0.274508 0.833333
vt 0.213484 1.000000
vt 0.152461 0.833333
vt 0.213484 0.000000
vt -0.066774 0.233538
vt 0.274508 0.666667
vt 0.152461 0.666667
vt 0.030413 0.333333
vt 0.030413 0.166667
vt 0.152461 0.500000
vt 0.030413 0.666667
vt 0.030413 0.500000
vt 0.091437 1.000000
vt 0.030413 0.833333
vt 0.091437 0.000000
vt -0.091634 0.666667
vt -0.091634 0.500000
vt -0.030610 1.000000
vt -0.091634 0.833333
vt -0.030610 0.000000
vt -0.091634 0.166667
vt -0.091634 0.333333
vt -0.152658 1.000000
vt -0.213681 0.833333
vt -0.152658 0.000000
vt -0.213681 0.166667
vt -0.213681 0.500000
vt -0.213681 0.333333
vt -0.213681 0.666667
vt 1.189862 0.000000
vt 1.250886 0.166667
vt 1.128839 0.166667
vt 1.250886 0.333333
vt 1.250886 0.500000
vt 1.128839 0.500000
vt 1.128839 0.333333
vt 1.250886 0.666667
vt 1.250886 0.833333
vt 1.128839 0.833333
vt 1.128839 0.666667
vt 1.189862 1.000000
vt 1.067815 0.000000
vt 1.006792 0.166667
vt 1.006792 0.500000
vt 1.006791 0.333333
vt 1.006792 0.833333
vt 1.006791 0.666667
vt 1.067815 1.000000
vt 0.945768 0.000000
vt 0.884744 0.500000
vt 0.945768 1.000000
s 0
usemtl Material.002
f 39/1/1 62/2/1 7/3/1
f 2/4/2 61/5/2 5/6/2 6/7/2
f 1/8/3 60/9/3 3/10/3 4/11/3
f 62/2/4 2/12/4 6/13/4 7/3/4
f 61/5/5 1/14/5 4/15/5 5/6/5
f 60/9/6 33/16/6 3/10/6
f 6/7/7 5/6/7 10/17/7 11/18/7
f 4/15/8 3/19/8 8/20/8 9/21/8
f 7/22/9 6/7/9 11/18/9 12/23/9
f 5/6/10 4/15/10 9/21/10 10/17/10
f 3/19/11 33/24/11 8/20/11
f 39/25/12 7/22/12 12/23/12
f 9/21/13 8/20/13 13/26/13 14/27/13
f 12/23/14 11/18/14 16/28/14 17/29/14
f 10/17/15 9/21/15 14/27/15 15/30/15
f 8/20/16 33/31/16 13/26/16
f 39/32/17 12/23/17 17/29/17
f 11/18/18 10/17/18 15/30/18 16/28/18
f 17/29/19 16/28/19 21/33/19 22/34/19
f 15/30/20 14/27/20 19/35/20 20/36/20
f 13/26/21 33/37/21 18/38/21
f 39/39/22 17/29/22 22/34/22
f 16/28/23 15/30/23 20/36/23 21/33/23
f 14/27/24 13/26/24 18/38/24 19/35/24
f 22/34/25 21/33/25 26/40/25 27/41/25
f 20/36/26 19/35/26 24/42/26 25/43/26
f 18/38/27 33/44/27 23/45/27
f 39/46/28 22/34/28 27/41/28
f 21/33/29 20/36/29 25/43/29 26/40/29
f 19/35/30 18/38/30 23/45/30 24/42/30
f 27/47/31 26/48/31 31/49/31 32/50/31
f 25/43/32 24/42/32 29/51/32 30/52/32
f 23/53/33 33/54/33 28/55/33
f 39/56/34 27/47/34 32/50/34
f 26/40/35 25/43/35 30/52/35 31/57/35
f 24/58/36 23/53/36 28/55/36 29/59/36
f 32/50/37 31/49/37 37/60/37 38/61/37
f 30/62/38 29/59/38 35/63/38 36/64/38
f 28/55/39 33/65/39 34/66/39
f 39/67/40 32/50/40 38/61/40
f 31/49/41 30/62/41 36/64/41 37/60/41
f 29/59/42 28/55/42 34/66/42 35/63/42
f 36/64/43 35/63/43 41/68/43 42/69/43
f 34/66/44 33/70/44 40/71/44
f 39/72/45 38/61/45 44/73/45
f 37/60/46 36/64/46 42/69/46 43/74/46
f 35/63/47 34/66/47 40/71/47 41/68/47
f 38/61/48 37/60/48 43/74/48 44/73/48
f 40/71/49 33/75/49 45/76/49
f 39/77/50 44/73/50 49/78/50
f 43/74/51 42/69/51 47/79/51 48/80/51
f 41/68/52 40/71/52 45/76/52 46/81/52
f 44/73/53 43/74/53 48/80/53 49/78/53
f 42/69/54 41/68/54 46/81/54 47/79/54
f 39/82/55 49/83/55 54/84/55
f 48/85/56 47/86/56 52/87/56 53/88/56
f 46/89/57 45/90/57 50/91/57 51/92/57
f 49/83/58 48/85/58 53/88/58 54/84/58
f 47/86/59 46/89/59 51/92/59 52/87/59
f 45/90/60 33/93/60 50/91/60
f 39/94/61 54/84/61 59/95/61
f 53/88/62 52/87/62 57/96/62 58/97/62
f 51/92/63 50/91/63 55/98/63 56/99/63
f 54/84/64 53/88/64 58/97/64 59/95/64
f 52/87/65 51/92/65 56/99/65 57/96/65
f 50/91/66 33/100/66 55/98/66
f 39/101/67 59/95/67 62/2/67
f 58/97/68 57/96/68 61/102/68 2/12/68
f 56/99/69 55/98/69 60/9/69 1/8/69
f 59/95/70 58/97/70 2/12/70 62/2/70
f 57/96/71 56/99/71 1/8/71 61/102/71
f 55/98/72 33/103/72 60/9/72
